<svg width="3116" height="1524" viewBox="0 0 3116 1524" fill="none" xmlns="http://www.w3.org/2000/svg">
<g id=" om-logo">
<g id="moss-2">
<path id="Vector" d="M1164.63 769.977C1164.1 757.934 1095.81 765.148 1089.34 754.28C1083.14 743.538 1137.23 705.889 1133.68 694.859C1130.07 683.765 1064 684.37 1062.91 672.117C1061.89 659.722 1123.69 628.784 1117.99 618.394C1112.35 607.963 1051.67 641.527 1042.07 633.542C1032.46 625.518 1072.39 573.888 1066.17 564.099C1059.95 554.31 995.931 568.861 992.802 556.794C989.551 544.665 1045.55 503.887 1038.45 494.465C1031.22 484.988 977.218 527.745 966.407 521.614C955.578 515.514 984.137 456.216 975.631 448.252C967.171 440.215 909.802 472.956 902.75 462.82C895.474 452.503 931.091 394.003 920.426 388.469C909.772 382.945 882.038 445.495 869.371 445.609C857.053 445.678 850.96 380.112 839.495 377.735C828.086 375.465 795.826 432.785 784.574 427.448C773.31 422.151 777.566 353.545 765.574 353.161C753.913 352.795 752.326 421.928 740.54 426.211C728.815 430.491 704.104 369.937 692.263 370.46C680.512 370.978 661.16 433.475 649.221 430.239C637.036 427.013 629.527 358.281 617.876 359.675C606.016 361.111 616.104 429.084 605.389 435.352C594.59 441.661 557.475 387.391 546.356 390.693C535.019 394.076 534.77 459.919 522.551 460.935C509.827 461.931 476.772 402.061 466.626 408.514C456.557 414.952 497.12 470.122 490.77 481.049C484.639 491.76 424.676 464.162 417.026 472.88C409.225 481.565 442.885 538.117 432.674 545.145C422.444 552.203 364.834 514.37 358.565 524.443C352.214 534.451 411.568 570.147 409.469 582.512C407.337 594.811 342.399 585.906 336.998 596.25C331.634 606.521 375.968 654.501 367.018 663.335C358.127 672.107 294.811 644.074 290.12 654.937C285.417 665.825 349.666 691.092 349.717 703.563C349.852 715.868 283.972 721.005 281.335 732.414C278.691 743.724 335.91 776.525 330.656 787.771C325.326 799.101 256.696 797.956 257.227 809.999C257.76 822.081 326.091 814.826 332.357 825.665C338.571 836.415 284.46 874.098 288.1 885.12C291.744 896.261 357.753 895.678 358.755 907.81C359.725 920.346 297.984 951.194 303.633 961.534C309.307 972.002 369.874 938.475 379.504 946.418C389.198 954.462 349.247 1006.1 355.487 1015.89C361.788 1025.74 425.66 1011.13 428.906 1023.23C432.115 1035.35 376.133 1076.1 383.301 1085.52C390.446 1095.07 444.482 1052.31 455.301 1058.4C466.153 1064.5 437.55 1123.78 446.085 1131.73C454.667 1139.8 511.874 1107 518.922 1117.06C526.221 1127.38 490.663 1185.98 501.299 1191.45C511.977 1196.97 539.693 1134.32 552.373 1134.3C564.691 1134.24 570.768 1199.87 582.327 1202.18C593.702 1204.59 625.92 1147.26 637.185 1152.59C648.373 1157.79 644.23 1226.46 656.23 1226.81C667.87 1227.15 669.42 1158.13 681.275 1153.8C692.951 1149.52 717.702 1210.1 729.482 1209.58C741.252 1209.06 760.542 1146.48 772.611 1149.77C784.73 1153.04 792.248 1221.63 803.977 1220.29C815.886 1218.82 805.736 1150.82 816.431 1144.62C827.172 1138.28 864.351 1192.51 875.443 1189.21C886.72 1185.8 886.959 1120.01 899.23 1119.01C911.987 1118.04 945.057 1177.87 955.185 1171.43C965.259 1165.11 924.701 1109.82 930.962 1098.88C937.155 1088.24 997.051 1115.88 1004.9 1107.08C1012.61 1098.43 979.018 1041.88 989.191 1034.85C999.431 1027.83 1056.99 1065.67 1063.35 1055.59C1069.58 1045.59 1010.27 1009.85 1012.39 997.493C1014.57 985.153 1079.56 994.014 1084.95 983.683C1090.22 973.378 1045.9 925.497 1054.9 916.629C1063.71 907.932 1126.96 936.065 1131.66 925.071C1136.41 914.182 1072.14 888.915 1072.11 876.337C1071.98 864.138 1137.92 858.924 1140.62 847.509C1143.19 836.213 1085.99 803.539 1091.21 792.224C1096.51 780.956 1165.17 782.058 1164.63 769.977L1164.63 769.977ZM575.323 810.618C524.334 812.867 481.206 773.512 478.967 722.752C476.727 671.964 516.223 628.969 567.212 626.72C618.211 624.47 661.347 663.826 663.587 714.61C665.822 765.362 626.32 808.369 575.323 810.618ZM843.841 798.775C792.89 801.022 749.764 761.667 747.526 710.907C745.286 660.119 784.782 617.124 835.73 614.877C886.758 612.626 929.889 651.981 932.129 702.765C934.368 753.518 894.875 796.524 843.841 798.775Z" fill="#6A8C65"/>
<path id="Vector_2" d="M555.26 596.262C487.495 599.251 434.882 656.547 437.861 724.092C440.835 791.501 498.288 843.943 566.053 840.954C633.885 837.962 686.498 780.665 683.525 713.257C680.546 645.712 623.093 593.27 555.26 596.262Z" fill="#6A8C65"/>
<path id="Vector_3" d="M824.054 586.057C756.796 589.024 704.589 645.932 707.549 713.023C710.502 779.977 767.516 832.068 834.773 829.102C902.316 826.123 954.511 769.215 951.558 702.26C948.61 635.17 891.596 583.078 824.054 586.057Z" fill="#6A8C65"/>
</g>
<g id="moss-1">
<path id="Vector_4" d="M755.639 983.335C755.204 973.481 699.543 979.374 694.264 970.48C689.217 961.689 733.297 930.89 730.403 921.864C727.456 912.786 673.601 913.272 672.713 903.245C671.878 893.103 722.247 867.796 717.601 859.294C713 850.757 663.551 878.213 655.727 871.677C647.891 865.11 680.429 822.869 675.358 814.858C670.287 806.847 618.109 818.745 615.557 808.87C612.906 798.945 658.538 765.586 652.757 757.875C646.863 750.12 602.852 785.098 594.039 780.08C585.212 775.087 608.481 726.569 601.547 720.052C594.65 713.474 547.897 740.257 542.148 731.962C536.216 723.519 565.237 675.655 556.544 671.126C547.859 666.604 525.264 717.783 514.94 717.874C504.9 717.929 499.925 664.277 490.58 662.331C481.281 660.472 454.996 707.37 445.824 703.002C436.643 698.665 440.101 642.528 430.327 642.212C420.823 641.911 419.539 698.48 409.934 701.983C400.379 705.483 380.23 655.931 370.578 656.357C361.001 656.779 345.237 707.916 335.506 705.265C325.574 702.624 319.444 646.382 309.948 647.521C300.282 648.695 308.514 704.316 299.782 709.443C290.981 714.604 260.723 670.192 251.66 672.892C242.421 675.659 242.227 729.536 232.269 730.365C221.899 731.179 194.949 682.185 186.68 687.463C178.474 692.73 211.543 737.879 206.369 746.819C201.373 755.583 152.497 732.992 146.263 740.124C139.906 747.23 167.348 793.509 159.027 799.259C150.69 805.033 103.73 774.067 98.6218 782.308C93.4473 790.497 141.828 819.714 140.119 829.831C138.384 839.895 85.4547 832.599 81.0545 841.062C76.6837 849.466 112.825 888.733 105.531 895.96C98.2859 903.137 46.6764 880.189 42.8548 889.078C39.0234 897.986 91.3929 918.67 91.4364 928.875C91.548 938.944 37.8536 943.138 35.706 952.473C33.5521 961.727 80.1933 988.575 75.9128 997.776C71.5696 1007.05 15.6329 1006.1 16.0675 1015.95C16.5036 1025.84 72.1953 1019.91 77.304 1028.78C82.3702 1037.58 38.2729 1068.41 41.2409 1077.43C44.213 1086.54 98.0133 1086.08 98.8314 1096C99.6242 1106.26 49.3063 1131.5 53.912 1139.96C58.5379 1148.52 107.899 1121.1 115.748 1127.6C123.651 1134.18 91.0962 1176.43 96.1832 1184.44C101.32 1192.5 153.377 1180.55 156.024 1190.46C158.641 1200.37 113.019 1233.71 118.862 1241.42C124.688 1249.23 168.723 1214.25 177.542 1219.24C186.388 1224.23 163.083 1272.73 170.041 1279.24C177.037 1285.85 223.658 1259.01 229.404 1267.25C235.355 1275.7 206.382 1323.64 215.051 1328.11C223.755 1332.63 246.336 1281.37 256.671 1281.36C266.71 1281.31 271.673 1335.02 281.094 1336.9C290.366 1338.88 316.616 1291.97 325.799 1296.34C334.918 1300.6 331.552 1356.78 341.332 1357.07C350.819 1357.35 352.073 1300.87 361.734 1297.33C371.25 1293.84 391.432 1343.41 401.033 1342.99C410.626 1342.56 426.339 1291.36 436.176 1294.05C446.054 1296.73 452.192 1352.85 461.751 1351.76C471.458 1350.56 463.175 1294.91 471.891 1289.84C480.644 1284.66 510.955 1329.04 519.995 1326.34C529.186 1323.55 529.371 1269.72 539.372 1268.9C549.77 1268.1 576.732 1317.07 584.985 1311.8C593.195 1306.63 560.131 1261.38 565.232 1252.44C570.279 1243.73 619.1 1266.35 625.495 1259.15C631.782 1252.08 604.392 1205.79 612.682 1200.05C621.028 1194.3 667.949 1225.27 673.129 1217.03C678.206 1208.85 629.862 1179.59 631.583 1169.48C633.359 1159.38 686.331 1166.64 690.727 1158.19C695.014 1149.76 658.888 1110.57 666.219 1103.32C673.396 1096.2 724.959 1119.23 728.784 1110.24C732.655 1101.33 680.265 1080.64 680.246 1070.35C680.138 1060.37 733.877 1056.11 736.074 1046.77C738.17 1037.53 691.545 1010.79 695.796 1001.53C700.112 992.309 756.074 993.221 755.637 983.335L755.639 983.335ZM275.33 1016.51C233.772 1018.34 198.615 986.13 196.783 944.595C194.95 903.037 227.135 867.861 268.693 866.028C310.259 864.194 345.422 896.403 347.255 937.958C349.084 979.488 316.894 1014.67 275.33 1016.51ZM494.182 1006.85C452.655 1008.69 417.5 976.476 415.668 934.941C413.835 893.382 446.02 858.206 487.545 856.375C529.134 854.541 564.294 886.75 566.127 928.305C567.959 969.834 535.777 1005.02 494.182 1006.85Z" fill="#122F08"/>
<path id="Vector_5" d="M258.947 841.103C203.716 843.539 160.843 890.416 163.28 945.686C165.713 1000.84 212.547 1043.76 267.779 1041.33C323.065 1038.89 365.938 992.013 363.505 936.855C361.068 881.584 314.233 838.665 258.947 841.103Z" fill="#122F08"/>
<path id="Vector_6" d="M478.024 832.791C423.207 835.209 380.664 881.768 383.086 936.666C385.502 991.453 431.978 1034.09 486.796 1031.67C541.845 1029.24 584.379 982.681 581.962 927.894C579.55 872.996 533.074 830.363 478.024 832.791Z" fill="#122F08"/>
</g>
<g id="moss-1_2">
<path id="Vector_7" d="M1652.83 429.765C1652.32 418.26 1587.21 425.145 1581.03 414.762C1575.13 404.499 1626.7 368.535 1623.31 357.997C1619.87 347.398 1556.87 347.971 1555.83 336.264C1554.85 324.422 1613.78 294.871 1608.34 284.944C1602.96 274.978 1545.11 307.039 1535.96 299.409C1526.8 291.742 1564.86 242.421 1558.93 233.068C1553 223.715 1491.96 237.611 1488.98 226.082C1485.88 214.494 1539.26 175.542 1532.5 166.54C1525.6 157.485 1474.12 198.329 1463.81 192.471C1453.48 186.642 1480.71 129.993 1472.6 122.384C1464.53 114.705 1409.83 145.98 1403.11 136.296C1396.17 126.439 1430.13 70.5525 1419.96 65.2652C1409.8 59.9864 1383.36 119.743 1371.28 119.85C1359.54 119.915 1353.72 57.2749 1342.79 55.0031C1331.91 52.8335 1301.16 107.592 1290.43 102.493C1279.69 97.4307 1283.74 31.8875 1272.31 31.5196C1261.19 31.169 1259.68 97.2166 1248.45 101.307C1237.27 105.395 1213.7 47.5421 1202.41 48.0401C1191.21 48.5343 1172.76 108.24 1161.38 105.147C1149.76 102.064 1142.6 36.3992 1131.49 37.7307C1120.18 39.1012 1129.81 104.041 1119.59 110.028C1109.29 116.055 1073.9 64.2042 1063.3 67.3579C1052.49 70.5887 1052.26 133.493 1040.61 134.463C1028.48 135.413 996.959 78.213 987.285 84.3763C977.686 90.5265 1016.36 143.237 1010.31 153.676C1004.47 163.908 947.293 137.537 940 145.865C932.563 154.163 964.66 208.192 954.925 214.906C945.173 221.649 890.242 185.499 884.265 195.122C878.211 204.683 934.805 238.791 932.804 250.603C930.773 262.353 868.857 253.84 863.709 263.722C858.595 273.534 900.869 319.376 892.336 327.815C883.86 336.195 823.489 309.407 819.018 319.786C814.535 330.187 875.795 354.332 875.845 366.246C875.974 378.002 813.162 382.904 810.649 393.804C808.128 404.608 862.686 435.95 857.678 446.694C852.597 457.518 787.161 456.418 787.669 467.923C788.178 479.466 853.327 472.541 859.303 482.896C865.228 493.167 813.64 529.163 817.111 539.694C820.587 550.338 883.523 549.787 884.479 561.377C885.405 573.354 826.54 602.82 831.927 612.699C837.338 622.7 895.083 590.674 904.265 598.264C913.509 605.949 875.422 655.277 881.372 664.629C887.38 674.046 948.278 660.088 951.374 671.649C954.434 683.229 901.062 722.159 907.897 731.153C914.71 740.279 966.227 699.431 976.542 705.251C986.89 711.079 959.623 767.712 967.762 775.31C975.945 783.02 1030.49 751.685 1037.21 761.299C1044.17 771.164 1010.27 827.143 1020.41 832.364C1030.59 837.642 1057.01 777.791 1069.1 777.778C1080.85 777.713 1086.65 840.419 1097.67 842.622C1108.51 844.926 1139.23 790.159 1149.97 795.258C1160.63 800.228 1156.69 865.825 1168.13 866.165C1179.23 866.488 1180.7 800.548 1192 796.414C1203.14 792.328 1226.74 850.207 1237.97 849.711C1249.19 849.216 1267.58 789.427 1279.09 792.573C1290.64 795.699 1297.82 861.222 1309 859.952C1320.35 858.542 1310.67 793.577 1320.87 787.656C1331.11 781.6 1366.56 833.411 1377.14 830.259C1387.89 827.003 1388.11 764.154 1399.81 763.192C1411.97 762.267 1443.51 819.43 1453.16 813.277C1462.77 807.241 1424.09 754.416 1430.06 743.971C1435.97 733.804 1493.08 760.215 1500.56 751.811C1507.91 743.548 1475.88 689.512 1485.57 682.8C1495.34 676.094 1550.22 712.249 1556.28 702.623C1562.22 693.067 1505.67 658.92 1507.69 647.113C1509.77 635.324 1571.73 643.795 1576.88 633.925C1581.89 624.08 1539.63 578.333 1548.21 569.862C1556.61 561.553 1616.92 588.436 1621.4 577.933C1625.93 567.53 1564.64 543.386 1564.62 531.369C1564.5 519.715 1627.36 514.739 1629.93 503.834C1632.39 493.042 1577.85 461.823 1582.82 451.012C1587.87 440.248 1653.34 441.307 1652.83 429.765L1652.83 429.765ZM1090.96 468.542C1042.34 470.686 1001.22 433.084 999.078 384.59C996.938 336.069 1034.59 294.996 1083.21 292.851C1131.83 290.707 1172.96 328.309 1175.1 376.826C1177.24 425.314 1139.58 466.397 1090.96 468.542ZM1346.97 457.25C1298.39 459.393 1257.27 421.79 1255.13 373.296C1252.99 324.775 1290.65 283.702 1339.22 281.559C1387.87 279.414 1429 317.016 1431.14 365.533C1433.28 414.021 1395.63 455.104 1346.97 457.25Z" fill="#122F08"/>
<path id="Vector_8" d="M1071.81 263.752C1007.2 266.601 957.04 321.336 959.887 385.867C962.727 450.266 1017.51 500.373 1082.12 497.523C1146.79 494.671 1196.95 439.936 1194.11 375.536C1191.27 311.005 1136.48 260.899 1071.81 263.752Z" fill="#122F08"/>
<path id="Vector_9" d="M1328.09 254.025C1263.96 256.854 1214.19 311.218 1217.02 375.314C1219.84 439.28 1274.2 489.051 1338.33 486.223C1402.73 483.382 1452.49 429.019 1449.67 365.053C1446.85 300.956 1392.48 251.185 1328.09 254.025Z" fill="#122F08"/>
</g>
<g id="moss-3">
<path id="Vector_10" d="M1799.98 543.26C1799.71 537.28 1765.8 540.862 1762.59 535.465C1759.51 530.131 1786.37 511.437 1784.61 505.961C1782.82 500.452 1750.01 500.752 1749.47 494.668C1748.96 488.513 1779.65 473.151 1776.82 467.992C1774.02 462.813 1743.89 479.479 1739.12 475.514C1734.35 471.529 1754.18 445.893 1751.09 441.032C1748 436.172 1716.21 443.397 1714.66 437.405C1713.04 431.382 1740.84 411.135 1737.32 406.456C1733.73 401.75 1706.92 422.981 1701.55 419.937C1696.17 416.908 1710.35 387.464 1706.13 383.509C1701.93 379.519 1673.44 395.776 1669.94 390.743C1666.33 385.62 1684.01 356.572 1678.72 353.825C1673.43 351.081 1659.66 382.14 1653.37 382.197C1647.25 382.231 1644.22 349.675 1638.53 348.494C1632.87 347.367 1616.85 375.829 1611.26 373.179C1605.67 370.549 1607.78 336.483 1601.83 336.292C1596.04 336.111 1595.25 370.438 1589.4 372.565C1583.57 374.69 1571.3 344.623 1565.42 344.882C1559.59 345.139 1549.98 376.172 1544.05 374.565C1538 372.963 1534.27 338.834 1528.49 339.527C1522.6 340.24 1527.61 373.991 1522.29 377.104C1516.93 380.237 1498.5 353.289 1492.97 354.929C1487.35 356.608 1487.22 389.302 1481.16 389.807C1474.84 390.302 1458.42 360.574 1453.39 363.777C1448.39 366.974 1468.53 394.368 1465.37 399.794C1462.33 405.113 1432.56 391.409 1428.76 395.738C1424.88 400.051 1441.6 428.131 1436.53 431.621C1431.45 435.126 1402.84 416.34 1399.73 421.341C1396.58 426.311 1426.05 444.035 1425 450.175C1423.95 456.282 1391.7 451.86 1389.02 456.997C1386.36 462.097 1408.37 485.921 1403.93 490.307C1399.51 494.663 1368.07 480.743 1365.74 486.138C1363.41 491.544 1395.31 504.09 1395.34 510.282C1395.4 516.393 1362.69 518.943 1361.38 524.608C1360.07 530.224 1388.48 546.511 1385.87 552.095C1383.22 557.721 1349.15 557.153 1349.41 563.133C1349.67 569.131 1383.6 565.53 1386.72 570.911C1389.8 576.249 1362.93 594.96 1364.74 600.433C1366.55 605.965 1399.33 605.676 1399.82 611.7C1400.3 617.925 1369.65 633.242 1372.45 638.376C1375.27 643.574 1405.34 626.926 1410.13 630.871C1414.94 634.865 1395.1 660.504 1398.2 665.364C1401.33 670.259 1433.04 663.001 1434.66 669.01C1436.25 675.028 1408.45 695.265 1412.01 699.938C1415.56 704.681 1442.39 683.449 1447.76 686.473C1453.15 689.502 1438.95 718.937 1443.19 722.886C1447.45 726.893 1475.85 710.604 1479.35 715.601C1482.98 720.727 1465.32 749.824 1470.6 752.537C1475.9 755.28 1489.67 724.171 1495.96 724.164C1502.08 724.13 1505.1 756.721 1510.84 757.865C1516.48 759.062 1532.48 730.596 1538.08 733.246C1543.63 735.828 1541.57 769.922 1547.53 770.098C1553.31 770.266 1554.08 735.993 1559.97 733.844C1565.77 731.72 1578.06 761.801 1583.91 761.543C1589.75 761.285 1599.33 730.209 1605.32 731.844C1611.34 733.468 1615.07 767.523 1620.9 766.862C1626.81 766.129 1621.77 732.364 1627.08 729.286C1632.41 726.139 1650.87 753.065 1656.38 751.426C1661.98 749.734 1662.1 717.069 1668.19 716.568C1674.53 716.087 1690.95 745.795 1695.98 742.597C1700.98 739.459 1680.84 712.005 1683.95 706.577C1687.02 701.292 1716.77 715.016 1720.66 710.648C1724.49 706.353 1707.81 678.27 1712.86 674.781C1717.95 671.295 1746.53 690.084 1749.69 685.08C1752.78 680.113 1723.33 662.368 1724.38 656.231C1725.46 650.104 1757.73 654.504 1760.41 649.374C1763.03 644.257 1741.02 620.482 1745.49 616.079C1749.86 611.76 1781.27 625.73 1783.6 620.271C1785.96 614.864 1754.05 602.318 1754.04 596.072C1753.97 590.015 1786.71 587.426 1788.05 581.758C1789.33 576.149 1760.93 559.925 1763.52 554.306C1766.15 548.711 1800.24 549.259 1799.98 543.26L1799.98 543.26ZM1507.36 563.44C1482.04 564.557 1460.63 545.015 1459.51 519.811C1458.4 494.592 1478.01 473.243 1503.33 472.126C1528.65 471.009 1550.07 490.551 1551.19 515.767C1552.3 540.968 1532.68 562.323 1507.36 563.44ZM1640.69 557.559C1615.39 558.675 1593.98 539.133 1592.86 513.929C1591.75 488.711 1611.36 467.361 1636.66 466.246C1662 465.128 1683.42 484.67 1684.53 509.886C1685.64 535.087 1666.03 556.442 1640.69 557.559Z" fill="#D8CCC0"/>
<path id="Vector_11" d="M1497.4 457.003C1463.75 458.487 1437.62 486.937 1439.1 520.476C1440.58 553.947 1469.11 579.987 1502.76 578.503C1536.44 577.017 1562.56 548.567 1561.09 515.096C1559.61 481.557 1531.08 455.517 1497.4 457.003Z" fill="#D8CCC0"/>
<path id="Vector_12" d="M1630.86 451.936C1597.47 453.409 1571.55 481.666 1573.01 514.979C1574.48 548.225 1602.79 574.091 1636.19 572.618C1669.72 571.139 1695.64 542.881 1694.18 509.635C1692.71 476.322 1664.4 450.456 1630.86 451.936Z" fill="#D8CCC0"/>
</g>
<g id="moss-3_2">
<path id="Vector_13" d="M2728.42 980.276C2727.89 968.233 2659.6 975.447 2653.12 964.579C2646.93 953.837 2701.02 916.188 2697.47 905.158C2693.86 894.064 2627.78 894.669 2626.69 882.416C2625.67 870.021 2687.48 839.083 2681.78 828.693C2676.13 818.262 2615.46 851.826 2605.86 843.84C2596.25 835.816 2636.18 784.187 2629.96 774.398C2623.74 764.609 2559.72 779.16 2556.59 767.092C2553.34 754.963 2609.33 714.186 2602.24 704.764C2595.01 695.287 2541 738.043 2530.19 731.913C2519.36 725.813 2547.92 666.515 2539.42 658.551C2530.96 650.514 2473.59 683.255 2466.54 673.119C2459.26 662.802 2494.88 604.302 2484.21 598.768C2473.56 593.244 2445.82 655.794 2433.16 655.908C2420.84 655.977 2414.75 590.411 2403.28 588.034C2391.87 585.764 2359.61 643.084 2348.36 637.747C2337.1 632.45 2341.35 563.844 2329.36 563.46C2317.7 563.094 2316.11 632.227 2304.33 636.51C2292.6 640.79 2267.89 580.236 2256.05 580.759C2244.3 581.277 2224.95 643.774 2213.01 640.537C2200.82 637.312 2193.31 568.579 2181.66 569.974C2169.8 571.41 2179.89 639.383 2169.17 645.65C2158.38 651.96 2121.26 597.69 2110.14 600.992C2098.8 604.375 2098.56 670.218 2086.34 671.234C2073.61 672.23 2040.56 612.36 2030.41 618.812C2020.34 625.251 2060.91 680.42 2054.56 691.348C2048.42 702.059 1988.46 674.461 1980.81 683.179C1973.01 691.864 2006.67 748.415 1996.46 755.444C1986.23 762.502 1928.62 724.669 1922.35 734.741C1916 744.75 1975.35 780.446 1973.25 792.811C1971.12 805.11 1906.18 796.205 1900.78 806.549C1895.42 816.82 1939.75 864.8 1930.8 873.633C1921.91 882.406 1858.6 854.373 1853.91 865.236C1849.2 876.124 1913.45 901.391 1913.5 913.862C1913.64 926.167 1847.76 931.304 1845.12 942.713C1842.48 954.023 1899.7 986.824 1894.44 998.07C1889.11 1009.4 1820.48 1008.26 1821.01 1020.3C1821.54 1032.38 1889.88 1025.13 1896.14 1035.96C1902.36 1046.71 1848.25 1084.4 1851.88 1095.42C1855.53 1106.56 1921.54 1105.98 1922.54 1118.11C1923.51 1130.64 1861.77 1161.49 1867.42 1171.83C1873.09 1182.3 1933.66 1148.77 1943.29 1156.72C1952.98 1164.76 1913.03 1216.4 1919.27 1226.19C1925.57 1236.04 1989.45 1221.43 1992.69 1233.53C1995.9 1245.65 1939.92 1286.4 1947.09 1295.81C1954.23 1305.37 2008.27 1262.61 2019.09 1268.7C2029.94 1274.8 2001.34 1334.08 2009.87 1342.03C2018.45 1350.1 2075.66 1317.29 2082.71 1327.36C2090.01 1337.68 2054.45 1396.28 2065.08 1401.74C2075.76 1407.27 2103.48 1344.62 2116.16 1344.6C2128.48 1344.53 2134.55 1410.17 2146.11 1412.47C2157.49 1414.88 2189.71 1357.56 2200.97 1362.89C2212.16 1368.09 2208.02 1436.76 2220.02 1437.11C2231.66 1437.45 2233.21 1368.43 2245.06 1364.1C2256.74 1359.82 2281.49 1420.4 2293.27 1419.88C2305.04 1419.36 2324.33 1356.78 2336.4 1360.07C2348.51 1363.34 2356.03 1431.92 2367.76 1430.59C2379.67 1429.12 2369.52 1361.12 2380.22 1354.92C2390.96 1348.58 2428.14 1402.81 2439.23 1399.51C2450.51 1396.1 2450.74 1330.31 2463.02 1329.3C2475.77 1328.34 2508.84 1388.17 2518.97 1381.72C2529.04 1375.41 2488.49 1320.12 2494.75 1309.18C2500.94 1298.54 2560.84 1326.18 2568.68 1317.38C2576.4 1308.73 2542.8 1252.18 2552.98 1245.15C2563.22 1238.13 2620.78 1275.97 2627.14 1265.89C2633.37 1255.89 2574.06 1220.15 2576.17 1207.79C2578.35 1195.45 2643.35 1204.31 2648.74 1193.98C2654 1183.68 2609.69 1135.8 2618.68 1126.93C2627.49 1118.23 2690.75 1146.36 2695.44 1135.37C2700.2 1124.48 2635.92 1099.21 2635.9 1086.64C2635.77 1074.44 2701.7 1069.22 2704.4 1057.81C2706.98 1046.51 2649.78 1013.84 2654.99 1002.52C2660.29 991.255 2728.95 992.357 2728.42 980.276L2728.42 980.276ZM2139.11 1020.92C2088.12 1023.17 2044.99 983.811 2042.75 933.051C2040.51 882.263 2080.01 839.268 2131 837.019C2182 834.769 2225.13 874.124 2227.37 924.908C2229.61 975.661 2190.1 1018.67 2139.11 1020.92ZM2407.63 1009.07C2356.68 1011.32 2313.55 971.966 2311.31 921.206C2309.07 870.418 2348.57 827.423 2399.52 825.175C2450.54 822.925 2493.67 862.28 2495.91 913.064C2498.15 963.817 2458.66 1006.82 2407.63 1009.07Z" fill="#D8CCC0"/>
<path id="Vector_14" d="M2119.05 806.561C2051.28 809.549 1998.67 866.846 2001.65 934.391C2004.62 1001.8 2062.07 1054.24 2129.84 1051.25C2197.67 1048.26 2250.28 990.964 2247.31 923.556C2244.33 856.011 2186.88 803.569 2119.05 806.561Z" fill="#D8CCC0"/>
<path id="Vector_15" d="M2387.84 796.356C2320.58 799.323 2268.37 856.231 2271.33 923.322C2274.29 990.276 2331.3 1042.37 2398.56 1039.4C2466.1 1036.42 2518.3 979.514 2515.34 912.559C2512.4 845.469 2455.38 793.377 2387.84 796.356Z" fill="#D8CCC0"/>
</g>
<g id="moss-1_3">
<path id="Vector_16" d="M3100.05 1009.06C3099.61 999.204 3043.95 1005.1 3038.67 996.203C3033.63 987.412 3077.71 956.613 3074.81 947.587C3071.87 938.509 3018.01 938.995 3017.12 928.968C3016.29 918.825 3066.66 893.519 3062.01 885.016C3057.41 876.48 3007.96 903.936 3000.14 897.4C2992.3 890.833 3024.84 848.592 3019.77 840.581C3014.7 832.57 2962.52 844.467 2959.97 834.593C2957.32 824.668 3002.95 791.309 2997.17 783.598C2991.27 775.842 2947.26 810.821 2938.45 805.803C2929.62 800.81 2952.89 752.292 2945.96 745.775C2939.06 739.197 2892.31 765.98 2886.56 757.685C2880.63 749.242 2909.65 701.378 2900.95 696.849C2892.27 692.327 2869.67 743.506 2859.35 743.597C2849.31 743.652 2844.34 690 2834.99 688.054C2825.69 686.195 2799.41 733.093 2790.23 728.724C2781.05 724.388 2784.51 668.251 2774.74 667.935C2765.23 667.634 2763.95 724.203 2754.34 727.706C2744.79 731.206 2724.64 681.654 2714.99 682.079C2705.41 682.502 2689.65 733.639 2679.92 730.988C2669.98 728.347 2663.85 672.105 2654.36 673.244C2644.69 674.417 2652.92 730.039 2644.19 735.166C2635.39 740.327 2605.13 695.915 2596.07 698.615C2586.83 701.381 2586.64 755.258 2576.68 756.088C2566.31 756.902 2539.36 707.907 2531.09 713.186C2522.88 718.452 2555.95 763.602 2550.78 772.542C2545.78 781.306 2496.91 758.715 2490.67 765.847C2484.32 772.953 2511.76 819.232 2503.44 824.982C2495.1 830.756 2448.14 799.79 2443.03 808.031C2437.86 816.219 2486.24 845.437 2484.53 855.554C2482.79 865.618 2429.87 858.322 2425.46 866.785C2421.09 875.189 2457.24 914.455 2449.94 921.682C2442.7 928.859 2391.09 905.912 2387.27 914.8C2383.43 923.709 2435.8 944.393 2435.85 954.598C2435.96 964.667 2382.26 968.861 2380.12 978.196C2377.96 987.45 2424.6 1014.3 2420.32 1023.5C2415.98 1032.77 2360.04 1031.82 2360.48 1041.68C2360.91 1051.56 2416.61 1045.64 2421.71 1054.51C2426.78 1063.3 2382.68 1094.13 2385.65 1103.15C2388.62 1112.27 2442.42 1111.8 2443.24 1121.73C2444.03 1131.98 2393.72 1157.22 2398.32 1165.68C2402.95 1174.25 2452.31 1146.82 2460.16 1153.32C2468.06 1159.9 2435.51 1202.15 2440.59 1210.16C2445.73 1218.23 2497.79 1206.28 2500.43 1216.18C2503.05 1226.1 2457.43 1259.44 2463.27 1267.14C2469.1 1274.96 2513.13 1239.98 2521.95 1244.96C2530.8 1249.95 2507.49 1298.46 2514.45 1304.97C2521.45 1311.57 2568.07 1284.74 2573.81 1292.97C2579.76 1301.42 2550.79 1349.36 2559.46 1353.84C2568.17 1358.36 2590.75 1307.1 2601.08 1307.09C2611.12 1307.03 2616.08 1360.74 2625.5 1362.63C2634.78 1364.6 2661.03 1317.7 2670.21 1322.06C2679.33 1326.32 2675.96 1382.5 2685.74 1382.8C2695.23 1383.07 2696.48 1326.6 2706.14 1323.06C2715.66 1319.56 2735.84 1369.13 2745.44 1368.71C2755.04 1368.29 2770.75 1317.08 2780.59 1319.77C2790.46 1322.45 2796.6 1378.57 2806.16 1377.49C2815.87 1376.28 2807.59 1320.64 2816.3 1315.57C2825.05 1310.38 2855.37 1354.76 2864.4 1352.06C2873.6 1349.27 2873.78 1295.44 2883.78 1294.62C2894.18 1293.83 2921.14 1342.79 2929.4 1337.52C2937.61 1332.35 2904.54 1287.1 2909.64 1278.16C2914.69 1269.45 2963.51 1292.08 2969.91 1284.88C2976.19 1277.8 2948.8 1231.52 2957.09 1225.77C2965.44 1220.03 3012.36 1251 3017.54 1242.75C3022.62 1234.57 2974.27 1205.32 2975.99 1195.2C2977.77 1185.11 3030.74 1192.37 3035.14 1183.91C3039.42 1175.48 3003.3 1136.3 3010.63 1129.04C3017.81 1121.93 3069.37 1144.96 3073.19 1135.96C3077.07 1127.05 3024.67 1106.37 3024.66 1096.08C3024.55 1086.09 3078.29 1081.84 3080.48 1072.5C3082.58 1063.25 3035.95 1036.51 3040.21 1027.25C3044.52 1018.03 3100.48 1018.94 3100.05 1009.06L3100.05 1009.06ZM2619.74 1042.23C2578.18 1044.06 2543.03 1011.85 2541.19 970.318C2539.36 928.759 2571.55 893.583 2613.1 891.75C2654.67 889.917 2689.83 922.126 2691.67 963.681C2693.49 1005.21 2661.3 1040.4 2619.74 1042.23ZM2838.59 1032.58C2797.07 1034.41 2761.91 1002.2 2760.08 960.664C2758.25 919.105 2790.43 883.929 2831.96 882.098C2873.54 880.263 2908.7 912.473 2910.54 954.028C2912.37 995.557 2880.19 1030.74 2838.59 1032.58Z" fill="#122F08"/>
<path id="Vector_17" d="M2603.36 866.826C2548.13 869.262 2505.25 916.138 2507.69 971.409C2510.12 1026.57 2556.96 1069.49 2612.19 1067.05C2667.47 1064.61 2710.35 1017.74 2707.92 962.577C2705.48 907.307 2658.64 864.387 2603.36 866.826Z" fill="#122F08"/>
<path id="Vector_18" d="M2822.43 858.514C2767.62 860.932 2725.07 907.491 2727.5 962.389C2729.91 1017.18 2776.39 1059.81 2831.21 1057.39C2886.26 1054.96 2928.79 1008.4 2926.37 953.617C2923.96 898.719 2877.48 856.086 2822.43 858.514Z" fill="#122F08"/>
</g>
<g id="moss-1_4">
<path id="Vector_19" d="M2482.75 475.11C2482.26 463.913 2419.02 470.609 2413.02 460.504C2407.28 450.516 2457.37 415.522 2454.08 405.267C2450.73 394.951 2389.54 395.504 2388.53 384.111C2387.58 372.587 2444.81 343.834 2439.53 334.174C2434.31 324.475 2378.12 355.67 2369.23 348.244C2360.33 340.782 2397.3 292.788 2391.54 283.686C2385.78 274.584 2326.49 288.102 2323.59 276.882C2320.58 265.605 2372.43 227.703 2365.86 218.942C2359.16 210.129 2309.16 249.872 2299.14 244.171C2289.11 238.497 2315.55 183.372 2307.67 175.966C2299.84 168.493 2246.72 198.924 2240.18 189.499C2233.44 179.906 2266.42 125.523 2256.54 120.376C2246.67 115.239 2221 173.388 2209.27 173.492C2197.86 173.554 2192.21 112.595 2181.59 110.383C2171.03 108.271 2141.16 161.557 2130.74 156.594C2120.31 151.667 2124.24 87.8835 2113.13 87.5245C2102.33 87.1824 2100.88 151.457 2089.96 155.436C2079.1 159.414 2056.21 103.112 2045.25 103.596C2034.36 104.076 2016.45 162.177 2005.4 159.166C1994.11 156.165 1987.15 92.2624 1976.36 93.5571C1965.37 94.89 1974.73 158.087 1964.81 163.913C1954.81 169.777 1920.43 119.315 1910.13 122.383C1899.63 125.527 1899.41 186.742 1888.1 187.685C1876.32 188.609 1845.69 132.942 1836.3 138.938C1826.98 144.923 1864.55 196.221 1858.67 206.38C1852.99 216.337 1797.46 190.669 1790.38 198.773C1783.15 206.847 1814.33 259.429 1804.88 265.962C1795.41 272.522 1742.05 237.339 1736.25 246.702C1730.37 256.006 1785.34 289.203 1783.4 300.699C1781.43 312.133 1721.29 303.843 1716.29 313.459C1711.32 323.008 1752.39 367.622 1744.1 375.834C1735.87 383.988 1677.23 357.915 1672.88 368.014C1668.53 378.136 1728.03 401.638 1728.08 413.232C1728.21 424.672 1667.2 429.438 1664.76 440.044C1662.31 450.558 1715.31 481.063 1710.45 491.518C1705.51 502.052 1641.96 500.976 1642.45 512.172C1642.94 523.405 1706.22 516.671 1712.03 526.749C1717.78 536.745 1667.68 571.77 1671.05 582.019C1674.43 592.377 1735.56 591.846 1736.49 603.125C1737.39 614.78 1680.21 643.45 1685.45 653.065C1690.7 662.798 1746.79 631.637 1755.71 639.023C1764.69 646.503 1727.7 694.503 1733.48 703.605C1739.31 712.77 1798.46 699.192 1801.47 710.442C1804.44 721.711 1752.61 759.592 1759.24 768.345C1765.86 777.226 1815.9 737.48 1825.92 743.144C1835.97 748.817 1809.49 803.927 1817.39 811.322C1825.34 818.826 1878.31 788.336 1884.84 797.692C1891.6 807.293 1858.68 861.766 1868.54 866.848C1878.42 871.985 1904.08 813.743 1915.82 813.732C1927.23 813.67 1932.87 874.693 1943.57 876.837C1954.11 879.08 1983.93 825.786 1994.37 830.749C2004.73 835.587 2000.9 899.422 2012.02 899.754C2022.8 900.07 2024.22 835.899 2035.2 831.878C2046.01 827.902 2068.94 884.229 2079.85 883.748C2090.75 883.267 2108.6 825.085 2119.78 828.147C2131 831.19 2137.98 894.954 2148.84 893.719C2159.87 892.348 2150.45 829.127 2160.36 823.365C2170.3 817.473 2204.74 867.896 2215.01 864.829C2225.46 861.662 2225.67 800.5 2237.03 799.565C2248.84 798.666 2279.48 854.297 2288.86 848.31C2298.18 842.436 2260.62 791.026 2266.41 780.863C2272.15 770.969 2327.62 796.675 2334.88 788.497C2342.03 780.457 2310.91 727.869 2320.33 721.338C2329.81 714.813 2383.12 750.002 2389 740.635C2394.77 731.336 2339.85 698.101 2341.8 686.611C2343.82 675.139 2404.01 683.387 2409 673.783C2413.87 664.203 2372.82 619.68 2381.15 611.437C2389.31 603.352 2447.89 629.518 2452.24 619.298C2456.64 609.175 2397.11 585.674 2397.09 573.979C2396.97 562.638 2458.03 557.801 2460.52 547.189C2462.91 536.687 2409.93 506.301 2414.76 495.781C2419.66 485.306 2483.25 486.342 2482.75 475.11L2482.75 475.11ZM1937.02 512.799C1889.81 514.882 1849.86 478.286 1847.78 431.093C1845.7 383.875 1882.26 343.907 1929.48 341.825C1976.71 339.742 2016.66 376.338 2018.75 423.553C2020.82 470.739 1984.25 510.716 1937.02 512.799ZM2185.68 501.832C2138.5 503.913 2098.56 467.316 2096.48 420.124C2094.39 372.905 2130.96 332.938 2178.14 330.857C2225.4 328.773 2265.35 365.369 2267.43 412.584C2269.51 459.77 2232.95 499.747 2185.68 501.832Z" fill="#122F08"/>
<path id="Vector_20" d="M1918.41 313.505C1855.66 316.273 1806.94 369.534 1809.71 432.333C1812.48 495.004 1865.69 543.769 1928.44 541.002C1991.26 538.231 2039.97 484.97 2037.21 422.299C2034.44 359.5 1981.23 310.735 1918.41 313.505Z" fill="#122F08"/>
<path id="Vector_21" d="M2167.33 304.062C2105.04 306.809 2056.71 359.709 2059.46 422.085C2062.2 484.334 2115.01 532.773 2177.29 530.026C2239.84 527.267 2288.17 474.367 2285.42 412.118C2282.68 349.742 2229.87 301.303 2167.33 304.062Z" fill="#122F08"/>
</g>
<g id="moss-2_2">
<path id="Vector_22" d="M2089.06 963.432C2088.53 951.389 2020.23 958.603 2013.76 947.735C2007.57 936.993 2061.66 899.344 2058.11 888.314C2054.49 877.22 1988.42 877.825 1987.33 865.572C1986.31 853.177 2048.11 822.239 2042.41 811.849C2036.77 801.418 1976.09 834.982 1966.5 826.996C1956.88 818.972 1996.81 767.343 1990.59 757.554C1984.37 747.765 1920.35 762.316 1917.22 750.248C1913.97 738.119 1969.97 697.342 1962.88 687.92C1955.65 678.443 1901.64 721.199 1890.83 715.069C1880 708.969 1908.56 649.671 1900.05 641.707C1891.59 633.67 1834.22 666.411 1827.17 656.275C1819.9 645.958 1855.51 587.458 1844.85 581.924C1834.19 576.4 1806.46 638.95 1793.79 639.064C1781.48 639.133 1775.38 573.567 1763.92 571.19C1752.51 568.92 1720.25 626.24 1709 620.903C1697.73 615.606 1701.99 547 1690 546.616C1678.33 546.25 1676.75 615.383 1664.96 619.666C1653.24 623.946 1628.53 563.392 1616.69 563.915C1604.93 564.433 1585.58 626.93 1573.64 623.693C1561.46 620.468 1553.95 551.735 1542.3 553.13C1530.44 554.566 1540.53 622.539 1529.81 628.806C1519.01 635.116 1481.9 580.846 1470.78 584.148C1459.44 587.531 1459.19 653.374 1446.97 654.39C1434.25 655.386 1401.19 595.516 1391.05 601.968C1380.98 608.407 1421.54 663.576 1415.19 674.504C1409.06 685.215 1349.1 657.617 1341.45 666.335C1333.65 675.02 1367.31 731.571 1357.1 738.6C1346.87 745.658 1289.26 707.825 1282.99 717.897C1276.64 727.906 1335.99 763.602 1333.89 775.967C1331.76 788.266 1266.82 779.361 1261.42 789.705C1256.06 799.976 1300.39 847.956 1291.44 856.789C1282.55 865.562 1219.23 837.529 1214.54 848.392C1209.84 859.28 1274.09 884.547 1274.14 897.018C1274.27 909.323 1208.39 914.46 1205.76 925.869C1203.11 937.179 1260.33 969.98 1255.08 981.226C1249.75 992.556 1181.12 991.411 1181.65 1003.45C1182.18 1015.54 1250.51 1008.28 1256.78 1019.12C1262.99 1029.87 1208.88 1067.55 1212.52 1078.58C1216.17 1089.72 1282.18 1089.13 1283.18 1101.26C1284.15 1113.8 1222.41 1144.65 1228.05 1154.99C1233.73 1165.46 1294.3 1131.93 1303.93 1139.87C1313.62 1147.92 1273.67 1199.55 1279.91 1209.34C1286.21 1219.2 1350.08 1204.58 1353.33 1216.68C1356.54 1228.8 1300.55 1269.56 1307.72 1278.97C1314.87 1288.52 1368.9 1245.76 1379.72 1251.85C1390.57 1257.95 1361.97 1317.23 1370.51 1325.19C1379.09 1333.25 1436.3 1300.45 1443.34 1310.51C1450.64 1320.84 1415.08 1379.44 1425.72 1384.9C1436.4 1390.42 1464.11 1327.77 1476.79 1327.76C1489.11 1327.69 1495.19 1393.33 1506.75 1395.63C1518.12 1398.04 1550.34 1340.71 1561.61 1346.05C1572.8 1351.25 1568.65 1419.91 1580.65 1420.27C1592.29 1420.6 1593.84 1351.58 1605.7 1347.25C1617.37 1342.98 1642.12 1403.56 1653.9 1403.04C1665.67 1402.52 1684.96 1339.93 1697.03 1343.23C1709.15 1346.5 1716.67 1415.08 1728.4 1413.75C1740.31 1412.27 1730.16 1344.27 1740.85 1338.07C1751.59 1331.74 1788.77 1385.96 1799.86 1382.66C1811.14 1379.25 1811.38 1313.47 1823.65 1312.46C1836.41 1311.49 1869.48 1371.32 1879.61 1364.88C1889.68 1358.56 1849.12 1303.27 1855.38 1292.34C1861.58 1281.7 1921.47 1309.34 1929.32 1300.54C1937.04 1291.89 1903.44 1235.33 1913.61 1228.3C1923.85 1221.28 1981.42 1259.12 1987.77 1249.05C1994 1239.04 1934.7 1203.31 1936.81 1190.95C1938.99 1178.61 2003.98 1187.47 2009.38 1177.14C2014.64 1166.83 1970.32 1118.95 1979.32 1110.08C1988.13 1101.39 2051.39 1129.52 2056.08 1118.53C2060.83 1107.64 1996.56 1082.37 1996.54 1069.79C1996.41 1057.59 2062.34 1052.38 2065.04 1040.96C2067.61 1029.67 2010.41 996.994 2015.63 985.679C2020.93 974.411 2089.59 975.513 2089.06 963.432L2089.06 963.432ZM1499.75 1004.07C1448.76 1006.32 1405.63 966.967 1403.39 916.207C1401.15 865.419 1440.64 822.424 1491.63 820.175C1542.63 817.925 1585.77 857.28 1588.01 908.064C1590.24 958.817 1550.74 1001.82 1499.75 1004.07ZM1768.26 992.23C1717.31 994.477 1674.19 955.122 1671.95 904.362C1669.71 853.574 1709.2 810.579 1760.15 808.331C1811.18 806.081 1854.31 845.436 1856.55 896.22C1858.79 946.973 1819.3 989.979 1768.26 992.23Z" fill="#6A8C65"/>
<path id="Vector_23" d="M1479.68 789.717C1411.92 792.705 1359.3 850.002 1362.28 917.547C1365.26 984.956 1422.71 1037.4 1490.47 1034.41C1558.31 1031.42 1610.92 974.12 1607.95 906.712C1604.97 839.167 1547.51 786.725 1479.68 789.717Z" fill="#6A8C65"/>
<path id="Vector_24" d="M1748.48 779.512C1681.22 782.479 1629.01 839.387 1631.97 906.477C1634.92 973.432 1691.94 1025.52 1759.2 1022.56C1826.74 1019.58 1878.93 962.67 1875.98 895.715C1873.03 828.625 1816.02 776.533 1748.48 779.512Z" fill="#6A8C65"/>
</g>
<g id="moss-2_3">
<path id="Vector_25" d="M2882.84 612.113C2882.46 603.511 2833.68 608.664 2829.05 600.901C2824.63 593.228 2863.26 566.336 2860.73 558.458C2858.15 550.533 2810.95 550.966 2810.17 542.213C2809.44 533.36 2853.59 511.261 2849.52 503.84C2845.49 496.389 2802.15 520.364 2795.29 514.659C2788.43 508.928 2816.95 472.05 2812.51 465.057C2808.06 458.065 2762.33 468.459 2760.1 459.839C2757.78 451.176 2797.77 422.049 2792.71 415.319C2787.54 408.55 2748.97 439.09 2741.24 434.711C2733.51 430.354 2753.91 387.998 2747.83 382.31C2741.79 376.569 2700.81 399.956 2695.78 392.715C2690.58 385.346 2716.02 343.56 2708.4 339.608C2700.79 335.662 2680.98 380.341 2671.93 380.422C2663.13 380.471 2658.78 333.638 2650.59 331.94C2642.44 330.319 2619.4 371.262 2611.36 367.45C2603.32 363.666 2606.36 314.662 2597.79 314.387C2589.46 314.126 2588.33 363.507 2579.91 366.566C2571.54 369.623 2553.89 326.371 2545.43 326.744C2537.03 327.114 2523.21 371.755 2514.68 369.443C2505.98 367.139 2500.62 318.044 2492.29 319.041C2483.82 320.066 2491.03 368.618 2483.38 373.095C2475.66 377.602 2449.15 338.838 2441.21 341.196C2433.11 343.612 2432.93 390.643 2424.2 391.369C2415.12 392.081 2391.51 349.316 2384.26 353.925C2377.07 358.524 2406.04 397.931 2401.5 405.736C2397.12 413.387 2354.29 393.674 2348.83 399.901C2343.26 406.105 2367.3 446.499 2360.01 451.519C2352.7 456.561 2311.55 429.537 2307.07 436.732C2302.54 443.88 2344.93 469.378 2343.43 478.21C2341.91 486.995 2295.52 480.634 2291.67 488.023C2287.84 495.359 2319.5 529.63 2313.11 535.94C2306.76 542.206 2261.53 522.182 2258.18 529.942C2254.82 537.719 2300.72 555.767 2300.75 564.675C2300.85 573.464 2253.79 577.134 2251.91 585.283C2250.02 593.361 2290.89 616.79 2287.14 624.823C2283.33 632.916 2234.31 632.098 2234.69 640.7C2235.07 649.33 2283.88 644.149 2288.35 651.89C2292.79 659.569 2254.14 686.485 2256.74 694.358C2259.34 702.316 2306.49 701.9 2307.21 710.565C2307.9 719.52 2263.8 741.554 2267.83 748.94C2271.89 756.417 2315.15 732.469 2322.03 738.143C2328.95 743.888 2300.42 780.771 2304.87 787.763C2309.37 794.803 2355 784.363 2357.32 793.006C2359.61 801.664 2319.62 830.774 2324.74 837.498C2329.84 844.321 2368.44 813.777 2376.17 818.128C2383.92 822.485 2363.49 864.828 2369.59 870.509C2375.72 876.273 2416.58 852.841 2421.61 860.028C2426.83 867.403 2401.43 909.259 2409.02 913.162C2416.65 917.107 2436.45 872.357 2445.51 872.347C2454.3 872.298 2458.65 919.18 2466.9 920.826C2475.03 922.548 2498.04 881.599 2506.09 885.411C2514.08 889.126 2511.12 938.17 2519.69 938.423C2528 938.665 2529.11 889.363 2537.58 886.272C2545.92 883.217 2563.6 926.488 2572.01 926.117C2580.42 925.746 2594.2 881.043 2602.82 883.395C2611.48 885.731 2616.85 934.719 2625.22 933.769C2633.73 932.714 2626.48 884.143 2634.12 879.715C2641.79 875.187 2668.35 913.922 2676.27 911.564C2684.33 909.129 2684.5 862.14 2693.26 861.42C2702.37 860.728 2725.99 903.464 2733.23 898.863C2740.42 894.349 2711.45 854.856 2715.93 847.047C2720.35 839.445 2763.13 859.188 2768.74 852.904C2774.25 846.725 2750.25 806.327 2757.52 801.308C2764.83 796.294 2805.95 823.322 2810.49 816.124C2814.94 808.979 2772.58 783.453 2774.09 774.625C2775.65 765.811 2822.07 772.14 2825.92 764.761C2829.68 757.4 2798.03 723.199 2804.45 716.865C2810.74 710.652 2855.93 730.747 2859.28 722.895C2862.68 715.116 2816.76 697.069 2816.75 688.084C2816.66 679.371 2863.75 675.647 2865.68 667.493C2867.52 659.425 2826.66 636.086 2830.39 628.004C2834.17 619.955 2883.22 620.743 2882.83 612.113L2882.84 612.113ZM2461.9 641.143C2425.48 642.749 2394.67 614.638 2393.07 578.381C2391.47 542.104 2419.68 511.393 2456.11 509.787C2492.53 508.18 2523.34 536.291 2524.94 572.565C2526.54 608.817 2498.33 639.536 2461.9 641.143ZM2653.7 632.683C2617.3 634.288 2586.5 606.177 2584.9 569.921C2583.3 533.643 2611.51 502.932 2647.9 501.327C2684.35 499.72 2715.16 527.831 2716.76 564.105C2718.36 600.357 2690.15 631.075 2653.7 632.683Z" fill="#6A8C65"/>
<path id="Vector_26" d="M2447.57 488.031C2399.16 490.166 2361.58 531.092 2363.71 579.339C2365.84 627.487 2406.87 664.946 2455.28 662.811C2503.73 660.674 2541.31 619.748 2539.19 571.599C2537.06 523.353 2496.02 485.894 2447.57 488.031Z" fill="#6A8C65"/>
<path id="Vector_27" d="M2639.56 480.742C2591.52 482.861 2554.23 523.51 2556.35 571.432C2558.46 619.256 2599.18 656.464 2647.22 654.345C2695.47 652.217 2732.75 611.569 2730.64 563.744C2728.53 515.822 2687.81 478.614 2639.56 480.742Z" fill="#6A8C65"/>
</g>
<g id="moss-3_3">
<path id="Vector_28" d="M1516.3 1049.75C1515.77 1037.71 1447.48 1044.92 1441 1034.06C1434.81 1023.31 1488.9 985.665 1485.35 974.635C1481.74 963.541 1415.66 964.146 1414.58 951.893C1413.55 939.498 1475.36 908.56 1469.66 898.171C1464.02 887.739 1403.34 921.303 1393.74 913.318C1384.13 905.294 1424.06 853.664 1417.84 843.875C1411.62 834.086 1347.6 848.637 1344.47 836.57C1341.22 824.441 1397.21 783.664 1390.12 774.241C1382.89 764.764 1328.89 807.521 1318.08 801.39C1307.25 795.29 1335.81 735.992 1327.3 728.028C1318.84 719.991 1261.47 752.733 1254.42 742.596C1247.14 732.279 1282.76 673.779 1272.1 668.245C1261.44 662.721 1233.71 725.272 1221.04 725.385C1208.72 725.455 1202.63 659.888 1191.16 657.511C1179.76 655.241 1147.5 712.561 1136.24 707.224C1124.98 701.927 1129.24 633.321 1117.24 632.937C1105.58 632.571 1104 701.704 1092.21 705.987C1080.48 710.267 1055.77 649.713 1043.93 650.236C1032.18 650.754 1012.83 713.251 1000.89 710.015C988.705 706.789 981.196 638.057 969.545 639.451C957.685 640.887 967.773 708.86 957.059 715.128C946.259 721.437 909.145 667.167 898.025 670.469C886.688 673.852 886.439 739.695 874.221 740.711C861.497 741.708 828.442 681.838 818.295 688.29C808.227 694.728 848.789 749.898 842.44 760.825C836.308 771.536 776.346 743.938 768.695 752.656C760.895 761.342 794.554 817.893 784.343 824.921C774.114 831.979 716.504 794.146 710.234 804.219C703.884 814.227 763.238 849.923 761.139 862.288C759.007 874.587 694.068 865.682 688.668 876.026C683.303 886.297 727.638 934.277 718.687 943.111C709.796 951.883 646.48 923.85 641.789 934.714C637.087 945.601 701.336 970.868 701.387 983.339C701.522 995.645 635.642 1000.78 633.005 1012.19C630.36 1023.5 687.58 1056.3 682.326 1067.55C676.995 1078.88 608.365 1077.73 608.896 1089.78C609.429 1101.86 677.76 1094.6 684.026 1105.44C690.24 1116.19 636.129 1153.87 639.769 1164.9C643.413 1176.04 709.423 1175.45 710.424 1187.59C711.395 1200.12 649.653 1230.97 655.302 1241.31C660.976 1251.78 721.544 1218.25 731.173 1226.19C740.868 1234.24 700.917 1285.87 707.156 1295.66C713.457 1305.52 777.33 1290.9 780.576 1303C783.785 1315.12 727.802 1355.88 734.97 1365.29C742.115 1374.84 796.151 1332.08 806.97 1338.17C817.822 1344.27 789.219 1403.55 797.754 1411.51C806.336 1419.58 863.543 1386.77 870.591 1396.83C877.89 1407.16 842.332 1465.76 852.968 1471.22C863.646 1476.74 891.362 1414.09 904.042 1414.08C916.36 1414.01 922.438 1479.65 933.996 1481.95C945.372 1484.36 977.589 1427.03 988.854 1432.37C1000.04 1437.57 995.9 1506.23 1007.9 1506.59C1019.54 1506.93 1021.09 1437.9 1032.94 1433.58C1044.62 1429.3 1069.37 1489.88 1081.15 1489.36C1092.92 1488.84 1112.21 1426.26 1124.28 1429.55C1136.4 1432.82 1143.92 1501.4 1155.65 1500.07C1167.56 1498.59 1157.41 1430.59 1168.1 1424.4C1178.84 1418.06 1216.02 1472.29 1227.11 1468.98C1238.39 1465.58 1238.63 1399.79 1250.9 1398.78C1263.66 1397.81 1296.73 1457.64 1306.85 1451.2C1316.93 1444.88 1276.37 1389.59 1282.63 1378.66C1288.82 1368.02 1348.72 1395.66 1356.57 1386.86C1364.28 1378.21 1330.69 1321.65 1340.86 1314.63C1351.1 1307.61 1408.66 1345.44 1415.02 1335.37C1421.25 1325.37 1361.94 1289.63 1364.06 1277.27C1366.24 1264.93 1431.23 1273.79 1436.62 1263.46C1441.89 1253.15 1397.57 1205.27 1406.57 1196.41C1415.37 1187.71 1478.63 1215.84 1483.33 1204.85C1488.08 1193.96 1423.8 1168.69 1423.78 1156.11C1423.65 1143.91 1489.59 1138.7 1492.29 1127.29C1494.86 1115.99 1437.66 1083.32 1442.88 1072C1448.17 1060.73 1516.84 1061.83 1516.3 1049.75L1516.3 1049.75ZM926.993 1090.39C876.003 1092.64 832.875 1053.29 830.636 1002.53C828.396 951.74 867.892 908.745 918.882 906.496C969.88 904.247 1013.02 943.602 1015.26 994.386C1017.49 1045.14 977.989 1088.14 926.993 1090.39ZM1195.51 1078.55C1144.56 1080.8 1101.43 1041.44 1099.2 990.683C1096.96 939.895 1136.45 896.9 1187.4 894.653C1238.43 892.402 1281.56 931.757 1283.8 982.541C1286.04 1033.29 1246.54 1076.3 1195.51 1078.55Z" fill="#D8CCC0"/>
<path id="Vector_29" d="M906.93 876.038C839.165 879.027 786.552 936.323 789.531 1003.87C792.504 1071.28 849.957 1123.72 917.722 1120.73C985.555 1117.74 1038.17 1060.44 1035.19 993.033C1032.22 925.488 974.762 873.046 906.93 876.038Z" fill="#D8CCC0"/>
<path id="Vector_30" d="M1175.72 865.833C1108.47 868.8 1056.26 925.709 1059.22 992.799C1062.17 1059.75 1119.19 1111.84 1186.44 1108.88C1253.99 1105.9 1306.18 1048.99 1303.23 982.036C1300.28 914.946 1243.27 862.854 1175.72 865.833Z" fill="#D8CCC0"/>
</g>
<g id="moss-2_4">
<path id="Vector_31" d="M1995.15 262.387C1994.83 255.103 1953.53 259.466 1949.61 252.893C1945.87 246.396 1978.58 223.624 1976.43 216.953C1974.25 210.243 1934.28 210.609 1933.63 203.198C1933.01 195.701 1970.39 176.988 1966.94 170.704C1963.53 164.395 1926.83 184.696 1921.02 179.866C1915.21 175.013 1939.36 143.785 1935.6 137.864C1931.84 131.943 1893.12 140.744 1891.22 133.446C1889.26 126.11 1923.12 101.446 1918.84 95.7471C1914.46 90.0149 1881.8 115.876 1875.26 112.168C1868.71 108.478 1885.98 72.6123 1880.84 67.7955C1875.72 62.9345 1841.02 82.7377 1836.76 76.6069C1832.36 70.3667 1853.9 34.9834 1847.45 31.6366C1841 28.2952 1824.23 66.1282 1816.57 66.197C1809.12 66.239 1805.43 26.5817 1798.5 25.1441C1791.6 23.7711 1772.08 58.4404 1765.28 55.2127C1758.47 52.0084 1761.04 10.513 1753.79 10.2807C1746.73 10.0593 1745.77 51.874 1738.65 54.4641C1731.55 57.0529 1716.61 20.4278 1709.45 20.7437C1702.34 21.0572 1690.63 58.858 1683.41 56.9002C1676.04 54.9493 1671.5 13.3773 1664.45 14.2208C1657.28 15.0892 1663.38 56.202 1656.9 59.9928C1650.37 63.809 1627.92 30.9844 1621.2 32.9816C1614.34 35.0276 1614.19 74.8521 1606.8 75.4666C1599.1 76.0694 1579.11 39.8577 1572.97 43.7602C1566.88 47.6544 1591.42 81.0231 1587.58 87.6322C1583.87 94.1108 1547.6 77.4186 1542.97 82.6914C1538.25 87.9448 1558.61 122.149 1552.44 126.4C1546.25 130.669 1511.4 107.786 1507.61 113.879C1503.77 119.932 1539.67 141.522 1538.4 149.001C1537.11 156.44 1497.83 151.054 1494.57 157.31C1491.32 163.523 1518.14 192.543 1512.72 197.886C1507.35 203.192 1469.05 186.236 1466.21 192.807C1463.37 199.392 1502.23 214.675 1502.26 222.218C1502.34 229.66 1462.5 232.767 1460.9 239.668C1459.3 246.508 1493.91 266.348 1490.73 273.15C1487.51 280.003 1446 279.31 1446.32 286.594C1446.64 293.901 1487.97 289.514 1491.76 296.069C1495.52 302.572 1462.79 325.364 1464.99 332.03C1467.2 338.769 1507.12 338.416 1507.73 345.754C1508.31 353.336 1470.97 371.994 1474.39 378.249C1477.82 384.58 1514.45 364.301 1520.28 369.106C1526.14 373.971 1501.98 405.202 1505.75 411.123C1509.56 417.084 1548.19 408.244 1550.16 415.563C1552.1 422.894 1518.24 447.544 1522.57 453.237C1526.89 459.015 1559.58 433.151 1566.12 436.835C1572.69 440.524 1555.39 476.38 1560.55 481.19C1565.74 486.071 1600.34 466.229 1604.6 472.315C1609.02 478.56 1587.51 514.002 1593.94 517.307C1600.4 520.648 1617.17 482.755 1624.83 482.747C1632.28 482.705 1635.96 522.403 1642.95 523.797C1649.83 525.255 1669.32 490.581 1676.13 493.808C1682.9 496.954 1680.39 538.484 1687.65 538.698C1694.69 538.903 1695.63 497.155 1702.8 494.538C1709.86 491.95 1724.83 528.592 1731.96 528.278C1739.08 527.964 1750.74 490.11 1758.04 492.101C1765.37 494.08 1769.92 535.561 1777.01 534.757C1784.22 533.864 1778.08 492.735 1784.55 488.986C1791.04 485.152 1813.53 517.951 1820.24 515.955C1827.06 513.893 1827.21 474.103 1834.63 473.493C1842.34 472.907 1862.35 509.095 1868.47 505.199C1874.56 501.377 1850.03 467.936 1853.82 461.323C1857.57 454.886 1893.79 471.603 1898.54 466.282C1903.21 461.051 1882.89 426.843 1889.04 422.593C1895.23 418.347 1930.05 441.233 1933.89 435.138C1937.66 429.088 1901.79 407.473 1903.07 399.998C1904.39 392.534 1943.7 397.894 1946.96 391.645C1950.14 385.412 1923.34 356.452 1928.78 351.088C1934.11 345.827 1972.37 362.844 1975.21 356.194C1978.08 349.608 1939.21 334.326 1939.19 326.718C1939.12 319.339 1979 316.186 1980.63 309.282C1982.18 302.449 1947.59 282.687 1950.74 275.843C1953.95 269.028 1995.48 269.694 1995.15 262.387L1995.15 262.387ZM1638.72 286.969C1607.88 288.329 1581.79 264.525 1580.44 233.824C1579.08 203.105 1602.97 177.1 1633.81 175.74C1664.66 174.379 1690.75 198.183 1692.1 228.899C1693.45 259.596 1669.56 285.608 1638.72 286.969ZM1801.13 279.805C1770.31 281.165 1744.22 257.361 1742.87 226.66C1741.52 195.941 1765.4 169.936 1796.22 168.577C1827.08 167.215 1853.17 191.019 1854.53 221.735C1855.88 252.432 1831.99 278.444 1801.13 279.805Z" fill="#6A8C65"/>
<path id="Vector_32" d="M1626.58 157.317C1585.59 159.125 1553.77 193.781 1555.57 234.634C1557.37 275.406 1592.12 307.125 1633.11 305.317C1674.14 303.507 1705.96 268.852 1704.16 228.081C1702.36 187.227 1667.61 155.508 1626.58 157.317Z" fill="#6A8C65"/>
<path id="Vector_33" d="M1789.16 151.145C1748.48 152.94 1716.9 187.36 1718.69 227.939C1720.48 268.436 1754.96 299.943 1795.64 298.148C1836.49 296.347 1868.06 261.926 1866.28 221.43C1864.49 180.851 1830.01 149.344 1789.16 151.145Z" fill="#6A8C65"/>
</g>
</g>
</svg>
